<svg xmlns="http://www.w3.org/2000/svg" viewBox="0 0 768 1152" role="img" aria-labelledby="title"><title id="title">Skill Card public demo art</title><defs><radialGradient id="a"><stop stop-color="#15472d"/><stop offset="1" stop-color="#020617"/></radialGradient><linearGradient id="b" x2="1" y2="1"><stop stop-color="#39ef9f"/><stop offset="1" stop-color="#00d8ff"/></linearGradient></defs><rect width="768" height="1152" rx="44" fill="#020617"/><rect x="24" y="24" width="720" height="1104" rx="30" fill="url(#a)" stroke="url(#b)" stroke-width="8"/><path d="M198 578c0-172 84-294 186-294s186 122 186 294" fill="none" stroke="#39ef9f" stroke-width="12"/><path d="M228 602h312M272 528h224M320 454h128" stroke="#d9ff7a" stroke-width="14" stroke-linecap="round"/><circle cx="384" cy="340" r="58" fill="#020617" stroke="#00d8ff" stroke-width="10"/><path d="m384 308 12 24 27 4-20 19 5 27-24-13-24 13 5-27-20-19 27-4Z" fill="#effff4"/><text x="384" y="850" text-anchor="middle" fill="#f1fff5" font-family="system-ui" font-size="72" font-weight="900">SKILL</text><text x="384" y="910" text-anchor="middle" fill="#83ffc1" font-family="monospace" font-size="23" letter-spacing="8">LEARN · APPLY · VERIFY</text><text x="384" y="1040" text-anchor="middle" fill="#00d8ff" font-family="monospace" font-size="20">BUILD WEEK PUBLIC DEMO</text></svg>
